<svg width="60" height="24" fill="none" xmlns="http://www.w3.org/2000/svg"><path d="M59.081 8.183h-3.168C54.313 3.434 49.827 0 44.545 0c-5.403 0-9.98 3.592-11.479 8.511-.947-.626-2.163-1.014-3.526-1.014s-2.578.388-3.526 1.014c-1.499-4.92-6.077-8.51-11.48-8.51C9.253 0 4.766 3.433 3.167 8.182H0v2.462h2.616c-.05.446-.082.897-.082 1.356 0 6.617 5.383 12 12 12s12-5.383 12-12c0-.069-.008-.136-.01-.204h.01c0-.87 1.234-1.838 3.006-1.838 1.772 0 3.007.969 3.007 1.838h.009c-.001.068-.01.135-.01.204 0 6.617 5.382 12 12 12 6.616 0 12-5.383 12-12 0-.459-.032-.91-.082-1.356h2.617V8.183zM14.534 21.54c-5.26 0-9.539-4.28-9.539-9.538 0-5.26 4.28-9.54 9.539-9.54 5.26 0 9.54 4.28 9.54 9.54 0 5.259-4.28 9.538-9.54 9.538zm30.011 0c-5.258 0-9.538-4.28-9.538-9.538 0-5.26 4.28-9.54 9.538-9.54 5.26 0 9.54 4.28 9.54 9.54 0 5.259-4.28 9.538-9.54 9.538z" fill="#F2F2F2"/></svg>