<svg width="25" height="26" fill="none" xmlns="http://www.w3.org/2000/svg"><mask id="a" fill="#fff"><path d="M24.783 23.73l-6.077-6.077a10.619 10.619 0 002.617-6.991C21.323 4.779 16.538 0 10.661 0 4.78 0 0 4.785 0 10.662c0 5.876 4.785 10.661 10.662 10.661 2.672 0 5.117-.987 6.99-2.617l6.077 6.077a.753.753 0 00.527.221.75.75 0 00.527-1.275zM1.49 10.66c0-5.056 4.114-9.164 9.165-9.164 5.056 0 9.165 4.114 9.165 9.165 0 5.05-4.109 9.17-9.165 9.17-5.05 0-9.165-4.114-9.165-9.17z"/></mask><path d="M24.783 23.73l-6.077-6.077a10.619 10.619 0 002.617-6.991C21.323 4.779 16.538 0 10.661 0 4.78 0 0 4.785 0 10.662c0 5.876 4.785 10.661 10.662 10.661 2.672 0 5.117-.987 6.99-2.617l6.077 6.077a.753.753 0 00.527.221.75.75 0 00.527-1.275zM1.49 10.66c0-5.056 4.114-9.164 9.165-9.164 5.056 0 9.165 4.114 9.165 9.165 0 5.05-4.109 9.17-9.165 9.17-5.05 0-9.165-4.114-9.165-9.17z" fill="#535353"/><path d="M24.783 23.73l-1.415 1.413 1.415-1.414zm-6.077-6.077l-1.509-1.313-1.224 1.408 1.319 1.319 1.414-1.414zm-1.053 1.053l1.414-1.414-1.32-1.32-1.407 1.225 1.313 1.51zm6.076 6.077l-1.414 1.414 1.414-1.414zm1.054 0l-1.415-1.415-.013.014-.013.013 1.44 1.388zm-14.127-4.951v2-2zm15.54 2.483L20.12 16.24l-2.828 2.828 6.076 6.076 2.829-2.828zm-5.98-3.35a12.619 12.619 0 003.107-8.303h-4c0 2.17-.8 4.153-2.126 5.678l3.018 2.625zm3.107-8.303C23.323 3.673 17.643-2 10.661-2v4c4.774 0 8.662 3.884 8.662 8.662h4zM10.661-2C3.675-2-2 3.68-2 10.662h4C2 5.889 5.884 2 10.662 2v-4zM-2 10.662c0 6.981 5.68 12.661 12.662 12.661v-4C5.889 19.323 2 15.433 2 10.661h-4zm12.662 12.661c3.174 0 6.08-1.174 8.303-3.108l-2.625-3.018a8.619 8.619 0 01-5.678 2.126v4zm5.577-3.203l6.076 6.077 2.828-2.828-6.076-6.077-2.828 2.828zm6.076 6.077c.517.517 1.22.807 1.941.807v-4c.345 0 .659.136.887.364l-2.828 2.829zm1.941.807a2.73 2.73 0 001.967-.834l-2.881-2.775a1.27 1.27 0 01.914-.39v4zm1.94-.807a2.75 2.75 0 000-3.882l-2.828 2.828a1.25 1.25 0 010-1.774l2.829 2.828zM3.492 10.662c0-3.951 3.218-7.165 7.165-7.165v-4C4.501-.503-.509 4.5-.509 10.66h4zm7.165-7.165c3.951 0 7.165 3.218 7.165 7.165h4c0-6.155-5.003-11.165-11.165-11.165v4zm7.165 7.165c0 3.948-3.216 7.17-7.165 7.17v4c6.163 0 11.165-5.018 11.165-11.17h-4zm-7.165 7.17c-3.945 0-7.165-3.218-7.165-7.17h-4c0 6.16 5.009 11.17 11.165 11.17v-4z" fill="#535353" mask="url(#a)"/></svg>