<svg xmlns="http://www.w3.org/2000/svg"><defs><font id="WorkSans" horiz-adv-x="597"><font-face font-family="Work Sans ExtraBold" ascent="930" descent="-243" alphabetic="0"/><glyph horiz-adv-x="267"/><glyph unicode="!" horiz-adv-x="312" d="M261 660V473l-22-255H72L50 473v187h211zM156 173q50 0 78-24t29-66q0-43-28-67T156-8q-51 0-79 24T48 83q0 42 28 66t80 24z"/><glyph unicode="&quot;" horiz-adv-x="463" d="M426 674l-31-288H264v288h162zm-208 0l-31-288H56v288h162z"/><glyph unicode="#" horiz-adv-x="706" d="M589 660L483 0H351l105 660h133zm46-394V150H28v116h607zM340 660L235 0H102l105 660h133zm338-150V394H71v116h607z"/><glyph unicode="$" horiz-adv-x="647" d="M330 0q-62 0-121 13T99 49t-85 57l85 131q26-32 68-53t88-31 87-11q45 0 70 12t25 37q0 18-17 28t-57 19l-129 31q-52 12-96 34t-69 57-26 86q0 63 34 111t99 76 157 27q90 0 161-25t125-74l-82-120q-44 37-96 58t-118 22q-35 0-57-6t-33-17-11-26q0-12 7-21t28-18 62-17l99-22q97-22 144-61t48-114q0-73-37-122T473 24 330 0zm-57-84v828h119V-84H273z"/><glyph unicode="%" horiz-adv-x="967" d="M173 0l473 661h150L322 0H173zm50 670q58 0 102-23t68-67 25-100q0-58-24-100t-69-66-102-24q-59 0-103 23t-68 67-25 100q0 57 24 100t69 66 103 24zm-1-132q-15 0-26-6t-17-20-6-32q0-18 6-31t17-20 26-7q17 0 27 6t17 20 6 32q0 18-6 31t-16 20-28 7zm522-168q59 0 103-23t68-67 25-100q0-57-24-100t-69-66-103-24q-59 0-103 23t-68 67-25 100q0 58 24 100t69 66 103 24zm0-132q-16 0-27-6t-17-20-6-32q0-18 6-31t17-20 27-7q16 0 27 6t17 20 6 32q0 19-6 32t-17 19-27 7z"/><glyph unicode="&amp;" horiz-adv-x="655" d="M257-10q-70 0-124 20T48 71 17 174q0 25 8 55t30 57 61 48 102 26l27 5q44 28 67 48t31 40 9 41q0 23-13 36t-37 13q-24 0-38-15t-15-42q0-14 6-28t22-35 46-53 79-84q47-48 80-81t58-51 50-23 57 0L634-10q-45 0-79 6t-69 24-75 53-102 95q-74 73-120 121t-69 82-32 62-9 61q0 43 23 83t71 67 125 26q77 0 123-24t67-61 21-78q0-48-24-88t-72-69-123-42l-30-18q-29-19-44-34t-22-31-6-37q0-21 12-37t34-24 52-9q43 0 77 13t67 33l15 23q16 29 26 63t10 83l131-1q-2-64-23-117t-63-91l-35-25q-31-50-90-79T257-10z"/><glyph unicode="'" horiz-adv-x="255" d="M218 674l-31-288H56v288h162z"/><glyph unicode="(" horiz-adv-x="405" d="M310 731l92-90q-53-47-87-100t-51-120-16-151q0-86 16-152T314-1t88-101l-92-90Q193-120 131-6T69 270q0 159 62 274t179 187z"/><glyph unicode=")" horiz-adv-x="405" d="M95-193L3-103Q56-56 90-3t51 120 16 151q0 86-16 152T91 539 3 640l92 90q117-72 179-186t62-276q0-159-62-274T95-193z"/><glyph unicode="*" horiz-adv-x="594" d="M329 500l87-76 87-112-114-83-80 118-45 104 33 24 32 25zm-65 0l33-25 32-24-45-104-80-118-114 83 88 112 86 76zM77 622l134-49 98-58-12-40-13-38-114 11-137 39 44 135zm290 108l-5-142-24-113h-82l-25 113-5 142h141zm150-108l43-135-137-39-114-11-12 38-13 40 98 58 135 49z"/><glyph unicode="+" horiz-adv-x="604" d="M381 598V57H224v541h157zm175-201V259H48v138h508z"/><glyph unicode="," horiz-adv-x="299" d="M145 190q42 0 68-18t39-49 13-64q0-50-22-95t-56-78-72-48l-78 55q27 12 52 29t44 37 30 41l-5 4q-6-4-14-6t-23-3Q101-5 81 5T47 34 33 84q0 37 16 60t42 34 54 12z"/><glyph unicode="-" horiz-adv-x="534" d="M457 349V191H78v158h379z"/><glyph unicode="." horiz-adv-x="299" d="M149 190q54 0 83-26t29-73q0-47-29-73T149-8Q97-8 67 18T37 91q0 47 30 73t82 26z"/><glyph unicode="/" horiz-adv-x="478" d="M468 706L197-70H10l271 776h187z"/><glyph unicode="0" horiz-adv-x="651" d="M326-10q-143 0-214 85T41 330q0 169 71 254t214 86q143 0 213-85t71-255q0-169-70-254T326-10zm0 156q31 0 49 17t26 57 8 110q0 69-8 109t-26 58-49 17q-31 0-49-17t-27-57-8-110q0-69 8-109t26-58 50-17z"/><glyph unicode="1" horiz-adv-x="446" d="M185 0v402q0 30 1 62-33-29-71-50t-81-28L20 552q28 2 58 13t59 26 50 33 34 36h161V0H185z"/><glyph unicode="2" horiz-adv-x="601" d="M55 0v126q80 46 137 89t95 82 55 75 18 68q0 31-17 52t-53 22q-41 0-61-31t-21-95L33 435q1 79 36 131t96 78 138 26q71 0 120-19t80-51 45-69 14-75q0-65-34-119t-94-100-139-89v-2q19 2 43 3t51 1 52 1h127V0H55z"/><glyph unicode="3" d="M305-10q-112 0-183 41T22 156l186 77q1-35 12-55t30-27 42-8q22 0 38 7t26 23 9 35q0 23-9 36t-26 18-37 6q-14 0-24-1t-25-3v124q8-1 16-1t20-1q37 0 54 16t17 52q0 30-16 46t-46 17q-31 0-52-18t-25-68L35 488q8 60 45 100t95 61 128 21q79 0 133-22t83-63 29-100q0-45-14-74t-37-46-42-24-31-8v-4q12 0 34-5t46-19 40-41 17-73q0-62-34-107t-92-70-130-24z"/><glyph unicode="4" horiz-adv-x="659" d="M365 0v135H43v125q12 22 31 53t47 72l184 275h238V270h94V135h-94V0H365zM199 270h169v220q0 19 2 41h-2q-10-19-21-38t-22-36l-98-146q-6-10-13-20t-15-21z"/><glyph unicode="5" horiz-adv-x="583" d="M285-10q-85 0-151 31T18 130l177 87q10-35 31-56t64-22q26 0 44 9t29 27 10 44q0 24-9 40t-28 25-48 9q-21 0-37-4t-30-10-24-17L46 290l43 370h431V507H234l-14-106-4-18h1q19 22 54 33t77 11q66 0 111-25t70-70 25-101q0-64-22-110t-60-74-86-43-101-14z"/><glyph unicode="6" horiz-adv-x="619" d="M348 670q54 0 101-14t83-46 53-89l-164-77q-9 32-30 50t-55 18q-24 0-44-10t-34-31-22-51-8-71v-15l1-9q12 26 36 44t56 29 63 10q60 0 107-23t74-66 28-106q0-68-32-118t-89-78-134-27q-86 0-153 35T80 134 41 322q0 120 41 196t110 114 156 38zm-14-391q-21 0-38-8t-28-25-11-38q0-21 11-37t28-25 38-9q37 0 56 18t20 53q0 23-9 38t-25 24-42 9z"/><glyph unicode="7" horiz-adv-x="625" d="M30 660h564V521q-82-78-127-161t-64-172T384 0H184q0 109 27 204t87 183 156 170l45-53H30v156z"/><glyph unicode="8" horiz-adv-x="631" d="M315 667q79 0 137-22t90-63 32-98q0-54-26-92t-81-58v-1q61-19 94-56t33-97q0-58-33-100t-96-66-150-24q-87 0-149 24T71 80 37 180q0 60 33 97t94 56v1q-53 20-80 58t-27 92q0 57 32 98t90 63 136 22zm1-142q-34 0-54-17t-20-49q0-30 20-47t54-18q34 0 53 17t20 48q0 31-19 48t-54 18zm0-392q26 0 44 7t27 24 10 37q0 21-9 36t-28 24-44 8q-25 0-44-8t-29-23-10-37q0-21 9-37t29-23 45-8z"/><glyph unicode="9" horiz-adv-x="616" d="M291 670q94 0 157-37t95-111 32-189q0-123-37-198T436 25 291-10q-87 0-152 33T41 132l181 68q6-29 23-44t49-16q24 0 42 9t32 28 19 47 7 65v19h-4q-10-24-33-40t-53-25-63-9q-61 0-108 25t-75 72-28 109q0 72 33 123t92 79 136 28zm0-152q-34 0-55-19t-21-54q0-33 21-51t55-18q22 0 39 8t27 25 11 38q0 22-10 38t-28 24-39 9z"/><glyph unicode=":" horiz-adv-x="304" d="M152 510q54 0 83-26t29-73q0-47-29-73t-83-26q-52 0-82 26t-30 73q0 47 30 73t82 26zm0-320q54 0 83-26t29-73q0-47-29-73T152-8q-52 0-82 26T40 91q0 47 30 73t82 26z"/><glyph unicode=";" horiz-adv-x="304" d="M148 190q42 0 68-18t39-49 13-64q0-50-22-95t-56-78-72-48l-78 55q27 12 52 29t44 37 30 41l-5 4q-6-4-14-6t-23-3Q104-5 84 5T50 34 36 84q0 37 16 60t42 34 54 12zm4 319q54 0 83-26t29-73q0-47-29-73t-83-26q-52 0-82 26t-30 73q0 47 30 73t82 26z"/><glyph unicode="&lt;" horiz-adv-x="604" d="M555-3L60 212v167l495 215V405L216 296l339-110V-3z"/><glyph unicode="=" horiz-adv-x="604" d="M539 498V366H65v132h474zm0-222V144H65v132h474z"/><glyph unicode="&gt;" horiz-adv-x="604" d="M49 594l495-215V212L49-3v189l339 109L49 405v189z"/><glyph unicode="?" horiz-adv-x="631" d="M320 670q77 0 138-20t97-63 36-107q0-62-26-101t-69-59-96-25l-14-79H213l1 153q59 4 93 15t50 29 15 40q0 28-16 42t-49 15q-35 0-54-22t-26-66L30 484q13 52 46 94t92 67 152 25zm-17-497q51 0 79-24t29-66q0-43-28-67T303-8q-50 0-78 24t-28 67q0 42 28 66t78 24z"/><glyph unicode="@" horiz-adv-x="921" d="M460-182q-92 0-170 26T155-77 65 52 33 231q0 96 33 176t94 138 143 90 179 32q87 0 160-26t126-77 84-121 30-159q0-83-21-139t-56-89-74-47-77-15q-74 0-113 37t-37 96q-22-54-63-85t-93-31q-40 0-72 22t-52 64-19 101q0 50 14 97t41 86 67 62 90 23q26 0 51-9t44-31 25-58l21 89h173l-62-270q-3-14-5-25t-2-22q0-26 12-38t35-13q24 0 44 19t34 60 13 108q0 74-23 132t-66 98-101 61-127 21q-80 0-145-25t-113-72-73-113-26-147q0-85 27-148t74-104 110-61 132-21q66 0 110 16t80 38l36-67q-28-18-61-33t-76-24-98-9zm-29 319q25 0 43 23t27 56 10 62q0 20-5 33t-17 21-27 7q-22 0-37-14t-27-35-16-44-5-42q0-21 6-36t18-23 30-8z"/><glyph unicode="A" horiz-adv-x="684" d="M-3 0l222 660h245L687 0H477L369 400l-28 108h-2l-27-107L201 0H-3zm159 137v132h373V137H156z"/><glyph unicode="B" horiz-adv-x="694" d="M61 0v660h351q124-1 183-45t60-132q0-57-34-98t-108-52v-1q81-10 120-52t39-104q0-86-59-131T433 0H61zm196 138h129q39 0 58 15t19 45q0 29-19 44t-58 15H257V138zm0 260h114q75 0 75 59t-75 59H257V398z"/><glyph unicode="C" horiz-adv-x="679" d="M664 196q-18-73-60-119T501 11 367-10q-102 0-176 40T76 147 36 330q0 107 40 183t114 116 176 41q72 0 132-20t103-62 57-109l-177-71q-11 64-38 85t-71 21q-40 0-68-20t-43-61-15-103q0-61 13-102t42-61 75-21q41 0 69 24t37 75l182-49z"/><glyph unicode="D" horiz-adv-x="717" d="M364 660q155 0 236-86t81-244q0-157-81-243T364 0H61v660h303zm-25-511q74 0 103 44t29 137q0 92-29 136t-103 45h-74V149h74z"/><glyph unicode="E" horiz-adv-x="628" d="M61 0v660h532V507H265V400h262V258H265V153h341V0H61z"/><glyph unicode="F" horiz-adv-x="613" d="M592 507H265V392h262V239H265V0H61v660h531V507z"/><glyph unicode="G" horiz-adv-x="722" d="M337-10q-87 0-155 38T75 142 36 328q0 108 40 184t117 117 180 41q117 0 188-42t111-133l-190-71q-10 49-38 69t-70 21q-43 0-71-20t-43-62-14-102q0-66 15-108t48-61 79-20q24 0 44 5t35 17 24 27 8 39v5H369v131h302V0H534l-16 167 32-32q-18-70-72-107T337-10z"/><glyph unicode="H" horiz-adv-x="745" d="M684 660V0H479v660h205zm-419 0V0H61v660h204zm326-251V256H160v153h431z"/><glyph unicode="I" horiz-adv-x="326" d="M265 660V0H61v660h204z"/><glyph unicode="J" horiz-adv-x="637" d="M589 660V263q0-129-76-201T295-10q-104 0-167 37T41 129 31 277l201 34q-12-92 6-128t66-37q43 0 62 32t19 103v379h204z"/><glyph unicode="K" horiz-adv-x="706" d="M688 660L371 263l-10 39-151-195-44 151 301 402h221zm-423 0V0H61v660h204zm179-209L704 0H473L293 338l151 113z"/><glyph unicode="L" horiz-adv-x="604" d="M265 153h314V0H61v660h204V153z"/><glyph unicode="M" horiz-adv-x="930" d="M870 660V0H690v264l4 213h-2L547 0H383L240 477h-3l4-213V0H61v660h288l89-313 33-131h2l33 131 89 313h275z"/><glyph unicode="N" horiz-adv-x="744" d="M683 660V0H459L279 327l-42 89h-2l4-130V0H61v660h223l180-327 43-89h1l-4 130v286h179z"/><glyph unicode="O" horiz-adv-x="733" d="M367 670q103 0 176-40t113-117 40-183q0-107-39-183T544 31 367-10q-102 0-176 40T76 147 36 330q0 107 40 183t114 116 177 41zm0-156q-41 0-67-20t-40-61-14-103q0-62 13-102t40-61 68-21q40 0 67 20t40 61 13 103q0 63-13 103t-40 60-67 21z"/><glyph unicode="P" horiz-adv-x="688" d="M389 660q85 0 144-26t91-77 32-124q0-73-31-123t-91-77-145-27H265V0H61v660h328zm-33-306q45 0 70 19t25 60q0 40-25 59t-70 20h-91V354h91z"/><glyph unicode="Q" horiz-adv-x="733" d="M536-206q-71 0-123 23t-79 64-28 96q0 24 7 50t23 52l111 31q-14-26-20-47t-7-39q0-34 15-53t42-27 61-8q45 0 73 9t49 24l25-135q-27-19-67-29t-82-11zM367 670q103 0 176-40t113-117 40-183q0-107-39-183T544 31 367-10q-102 0-176 40T76 147 36 330q0 107 40 183t114 116 177 41zm0-156q-41 0-67-20t-40-61-14-103q0-62 13-102t40-61 68-21q40 0 67 20t40 61 13 103q0 63-13 103t-40 60-67 21z"/><glyph unicode="R" horiz-adv-x="698" d="M399 660q123 0 190-56t68-151q0-105-66-159t-190-54l-20-11H261V0H61v660h338zm-33-292q43 0 64 16t22 55q0 38-21 55t-65 17H261V368h105zm121-43L695 0H472L311 289l176 36z"/><glyph unicode="S" horiz-adv-x="647" d="M335 670q94 0 167-25t128-78l-89-131q-45 38-95 59t-112 22q-31 0-50-6t-27-16-9-24q0-16 19-26t55-18l100-23q100-23 149-67t49-122q0-75-37-125T480 15 333-10q-65 0-126 13T94 40 6 99l88 135q27-26 66-46t83-33 85-12q29 0 47 5t27 16 8 24q0 17-13 27t-49 19l-110 25q-54 12-100 33t-73 58-28 99q0 65 35 115t102 78 161 28z"/><glyph unicode="T" horiz-adv-x="671" d="M648 660V507H438V0H234v507H22v153h626z"/><glyph unicode="U" horiz-adv-x="711" d="M663 660V277q0-144-77-215T356-10q-154 0-231 71T48 277v383h205V266q0-60 26-90t77-30q51 0 77 30t26 90v394h204z"/><glyph unicode="V" horiz-adv-x="696" d="M697 660L469 0H227L-1 660h213l106-379 34-129 32 127 107 381h206z"/><glyph unicode="W" horiz-adv-x="1010" d="M189 0L0 660h220l93-498 104 498h180l109-495 91 495h212L820 0H600l-64 282-27 165h-3l-27-165L415 0H189z"/><glyph unicode="X" horiz-adv-x="685" d="M686 0H440L336 190 238 0H6l222 330L17 660h241l94-182 95 182h222L459 336 686 0z"/><glyph unicode="Y" horiz-adv-x="687" d="M677 660L446 234V0H241v234L9 660h207l80-165 49-115 48 115 81 165h203z"/><glyph unicode="Z" horiz-adv-x="636" d="M187 81l-36 68h462V0H31v143l416 436 35-68H36v149h566V517L187 81z"/><glyph unicode="[" horiz-adv-x="407" d="M383 571H257V-32h126v-136H85v874h298V571z"/><glyph unicode="\" horiz-adv-x="478" d="M10 706h187L468-70H281L10 706z"/><glyph unicode="]" horiz-adv-x="407" d="M24-33h126v603H24v136h298v-874H24v135z"/><glyph unicode="^" horiz-adv-x="631" d="M24 355l207 367h168l208-367H432L316 594 198 355H24z"/><glyph unicode="_" horiz-adv-x="539" d="M539-55v-156H0v156h539z"/><glyph unicode="`" horiz-adv-x="500" d="M310 734l63-175H229L127 734h183z"/><glyph unicode="a" horiz-adv-x="584" d="M324 315q0 28-14 44t-43 17q-26 0-44-14t-24-53L28 340q10 78 73 124t180 46q80 0 134-22t82-66 27-103V151q0-40 37-40 15 0 23 4L574 6q-33-16-82-16-43 0-76 13t-52 40-19 68v8l20 3q0-40-24-70T277 6t-88-16q-52 0-89 16T44 52t-20 73q0 55 33 90t102 48l181 38-1-85-74-17q-25-5-36-16t-12-32q0-19 13-29t32-11q13 0 24 4t19 12 14 20 5 29v139z"/><glyph unicode="b" horiz-adv-x="627" d="M397-10q-51 0-89 24t-61 67-28 97l18 24L226 0H49v706h202V327l-18 27q12 67 53 111t119 45q57 0 100-31t66-89 24-142q0-81-23-139t-68-88-107-31zm-77 144q34 0 53 26t19 90q0 64-19 89t-53 26q-22 0-37-13t-24-40-8-62q0-39 8-64t24-39 37-13z"/><glyph unicode="c" horiz-adv-x="569" d="M298 510q84 0 138-23t83-61 32-79l-187-57q-3 41-16 61t-43 20q-25 0-42-12t-25-39-8-72q0-46 9-72t27-36 40-11q20 0 32 8t21 25 10 40l181-57q-4-43-34-78t-84-56-125-21q-86 0-149 30t-97 89-34 141q0 83 34 141t95 88 142 31z"/><glyph unicode="d" horiz-adv-x="627" d="M229-10q-61 0-105 30t-68 89-24 139q0 83 24 141t69 90 107 31q71 0 111-44t51-114l-18-25v379h202V0H396l-12 187 23-23q-6-51-29-90t-61-62-88-22zm78 144q22 0 37 13t23 39 9 65q0 37-7 62t-23 39-39 13q-33 0-52-25t-20-90q0-64 19-90t53-26z"/><glyph unicode="e" horiz-adv-x="580" d="M305-10q-86 0-148 30t-96 89-34 141q0 83 34 141t95 88 141 31q82 0 139-30t88-85 31-126q0-17-1-34t-4-29H157v88h305l-96-37q0 57-15 86t-54 30q-26 0-43-12t-26-40-9-74q0-46 10-72t30-37 48-10q32 0 50 13t26 36l162-48q-12-46-48-77T410 6 305-10z"/><glyph unicode="f" horiz-adv-x="423" d="M294 723q45 0 79-9t50-21l-16-120q-10 6-24 10t-36 4q-33 0-54-14t-22-52v-62l13-28V0H82v532q0 53 17 89t48 59 69 33 78 10zm123-223V361H8v139h409z"/><glyph unicode="g" horiz-adv-x="569" d="M555 649l14-129q-9 2-16 2t-14 1q-43 0-63-21t-20-51l-63 21q0 42 14 83t45 68 84 27h9q5 0 10-1zM377 127q93 0 141-37t49-112q0-66-34-109t-99-63-154-21q-142 0-202 32T17-92q0 42 37 66T175 0l-3-17Q101-9 69 21t-33 81q0 51 41 81t105 32l66-30h-18q-36-1-50-9t-14-21q0-14 11-21t37-7h163zM282-89q45 0 74 4t44 14 15 21q0 10-7 15t-27 6H194q-14 0-22-7t-8-18q0-17 31-26t87-9zm10 599q83 0 139-19t86-57 30-95q0-55-29-93t-86-57-140-19q-125 0-189 43T38 339q0 57 29 94t86 57 139 20zm0-109q-26 0-41-15t-16-46q0-30 15-45t42-16q26 0 41 15t16 46q0 31-15 46t-42 15z"/><glyph unicode="h" horiz-adv-x="620" d="M49 0v706h202V403q21 52 61 79t96 28q51 0 87-19t57-58 20-95V0H370v284q0 43-13 59t-38 16q-20 0-35-10t-24-31-9-55V0H49z"/><glyph unicode="i" horiz-adv-x="300" d="M150 544q-60 0-86 21t-27 68q0 48 26 69t87 21q60 0 86-21t27-69q0-47-26-68t-87-21zm101-44V0H49v500h202z"/><glyph unicode="j" horiz-adv-x="300" d="M150 544q-60 0-86 21t-27 68q0 48 26 69t87 21q60 0 86-21t27-69q0-47-26-68t-87-21zm101-44V-20q0-69-23-112t-69-63-116-20q-44 0-79 8t-63 23l26 123q10-7 24-11t33-4q30 0 47 16T49-2v502h202z"/><glyph unicode="k" horiz-adv-x="641" d="M638 500L389 230l-36-6L218 66l-3 200 203 234h220zM251 706V0H49v706h202zm171-348L649 0H427L296 239l126 119z"/><glyph unicode="l" horiz-adv-x="334" d="M250 706V186q0-32 10-46t35-14q12 0 21 1t21 6L326 19Q308 6 276-2t-65-8q-87 0-125 38T48 157v549h202z"/><glyph unicode="m" horiz-adv-x="937" d="M49 0v500h182l5-103q22 55 66 84t105 29q56 0 95-25t57-75q16 33 40 55t57 33 70 12q50 0 86-19t57-58 20-95V0H687v288q0 40-13 55t-37 16q-20 0-35-10t-24-31-8-54V0H368v288q0 40-13 55t-37 16q-19 0-34-10t-24-31-9-55V0H49z"/><glyph unicode="n" horiz-adv-x="620" d="M49 0v500h182l9-193-21 22q8 58 33 98t64 62 92 21q51 0 87-19t57-58 20-95V0H370v286q0 42-13 57t-39 16q-19 0-34-9t-24-31-9-55V0H49z"/><glyph unicode="o" horiz-adv-x="598" d="M299 510q82 0 143-30t95-89 34-141q0-82-34-140t-95-89-143-31q-80 0-141 30t-96 89-35 141q0 83 34 141t96 88 142 31zm0-139q-22 0-37-11t-24-38-8-72q0-45 8-71t23-38 38-12q23 0 38 11t23 38 8 72q0 45-8 72t-23 38-38 11z"/><glyph unicode="p" horiz-adv-x="627" d="M49-210v710h183l10-202-23 24q5 55 28 97t61 66 90 25q62 0 106-30t67-88 24-140q0-82-24-141t-68-90-106-31q-71 0-111 44t-53 112l18 27v-383H49zm271 345q34 0 53 25t19 90q0 64-19 90t-52 26q-21 0-37-13t-24-38-9-65q0-37 7-63t24-39 38-13z"/><glyph unicode="q" horiz-adv-x="627" d="M376-210v388l19-27q-6-47-27-83t-56-57-82-21q-61 0-105 31t-69 90-24 141q0 83 24 140t69 87 106 31q52 0 90-24t60-67 27-99l-23-21 10 201h183v-710H376zm-69 345q22 0 37 13t24 39 8 64q0 39-8 64t-24 38-37 13q-33 0-52-26t-20-90q0-64 19-89t53-26z"/><glyph unicode="r" horiz-adv-x="437" d="M49 0v500h181l6-117q17 59 53 93t96 34q21 0 34-3t19-9l-18-164q-10 4-26 7t-37 3q-30 0-54-11t-38-32-14-55V0H49z"/><glyph unicode="s" horiz-adv-x="536" d="M270-10q-74 0-140 22T17 77l81 107q27-27 69-47t90-20q24 0 40 6t17 21q0 10-8 16t-36 12l-52 10q-102 20-144 58T31 342q0 41 25 79t81 64 144 25q77 0 137-20t97-59l-79-104q-27 26-68 41t-78 15q-19 0-32-3t-19-8-7-15q0-10 11-17t43-14l80-14q79-14 115-52t36-93q0-49-26-89t-80-64-141-24z"/><glyph unicode="t" horiz-adv-x="443" d="M292 665V192q0-35 15-50t47-15q22 0 38 4t30 13l13-118Q411 9 370 0t-80-10q-64 0-108 17t-68 54-24 99v449l202 56zm136-165V361H8v139h420z"/><glyph unicode="u" horiz-adv-x="619" d="M214-10q-51 0-88 17T68 63 47 164v336h202V211q0-38 14-54t41-16q14 0 26 5t20 17 13 29 5 42v266h202V0H389l-5 100q-23-55-66-82T214-10z"/><glyph unicode="v" horiz-adv-x="575" d="M372 500h209L411 0H164L-6 500h211l83-367 84 367z"/><glyph unicode="w" horiz-adv-x="922" d="M714 500h210L781 0H534l-74 274L388 0H141L-2 500h210l70-355 84 355h198l84-355 70 355z"/><glyph unicode="x" horiz-adv-x="609" d="M231 500l113-230 74 9L612 0H382L267 232l-76-4L2 500h229zm377 0L422 229l-83 6L223 0H-4l195 280 77-11 115 231h225z"/><glyph unicode="y" horiz-adv-x="579" d="M585 500L422 30q-30-90-67-143t-89-78-124-24q-45 0-82 9t-64 24L34-51q17-10 36-15t53-5q31 0 48 8t25 29l7 19-60 142L-3 500h221l60-271 21-111 25 114 62 268h199z"/><glyph unicode="z" horiz-adv-x="510" d="M28 0v119l176 197 49 49-75-2H28v137h449V381L303 186l-51-51 85 2h149V0H28z"/><glyph unicode="{" horiz-adv-x="445" d="M425-192q-96 0-155 17t-85 59T158-6v109q0 56-25 80t-87 24v124q61 0 86 24t26 80v110q0 69 26 109t86 59 155 18V607q-57 0-83-21t-26-70V389q0-48-23-77t-69-42q45-15 68-44t24-77V23q0-49 26-70t83-22v-123z"/><glyph unicode="|" horiz-adv-x="348" d="M263 706v-874H85v874h178z"/><glyph unicode="}" horiz-adv-x="445" d="M20 730q96 0 155-17t85-59 27-110V435q0-56 25-80t87-24V207q-61 0-86-24t-26-80V-7q0-69-26-109t-86-59-155-18v124q57 0 83 21t26 70v127q0 48 23 77t69 42q-45 15-68 44t-24 77v126q0 49-26 70t-83 22v123z"/><glyph unicode="~" horiz-adv-x="617" d="M574 439q-4-102-47-156t-124-54q-36 0-60 9t-41 21-32 21-32 9q-19 0-29-12t-14-41H43q4 103 47 156t125 54q35 0 59-9t42-21 32-21 31-9q19 0 29 12t14 41h152z"/><glyph horiz-adv-x="267"/><glyph unicode="¡" horiz-adv-x="310" d="M50-160V27l22 255h167l22-255v-187H50zm105 487q-50 0-78 24t-29 66q0 43 28 67t79 24q51 0 79-24t29-67q0-42-28-66t-80-24z"/><glyph unicode="¢" horiz-adv-x="578" d="M315-10q-90 0-152 30t-96 89-34 141q0 83 33 141t95 88 146 31q83 0 135-23t80-60 35-80l-146-50q-5 45-29 68t-64 24q-52 0-81-31t-29-110q0-53 14-83t40-42 56-12q28 0 47 9t32 29 17 47l143-50q-7-46-38-81t-83-55-121-20zm-64-90v700h119v-700H251z"/><glyph unicode="£" horiz-adv-x="622" d="M42 267v83h446v-83H42zM152-10q-52 0-88 24T28 85q0 32 18 53t47 32 65 10q44 0 75-5t55-14 42-17 41-15 47-6q32 0 47 19t12 58l124-16q8-56-8-100t-52-69-85-25q-43 0-76 12t-60 31-53 37-53 31-59 12q-19 0-29-7t-10-20q0-14 10-21t27-7q21 0 33 9t17 33 6 59q0 44-15 80t-50 87q-20 33-32 57t-17 46-5 47q0 54 29 98t84 70 135 26q100 0 162-45t80-137l-162-58q-11 53-32 76t-57 23q-30 0-50-17t-20-48q0-12 4-25t13-31 24-47q19-35 31-74t13-74q0-43-12-82t-37-71-61-51-82-19z"/><glyph unicode="¤" horiz-adv-x="640" d="M321 537q63 0 111-26t75-73 27-108q0-62-27-108t-75-73-111-27q-64 0-112 26t-76 73-27 109q0 62 27 108t75 72 113 27zm0-138q-31 0-49-18t-19-51q0-32 18-51t50-19q30 0 48 19t18 51q0 32-18 50t-48 19zM139 624l135-157-92-92L24 510l115 114zm42-340l93-92L139 34 24 149l157 135zm282-5l152-130L500 34 369 186l94 93zm37 345l115-114-151-132-95 94 131 152z"/><glyph unicode="¥" horiz-adv-x="683" d="M242 0v127H51v58h191v63H51v60h114l66-4L14 660h206l78-181 43-103h2l42 104 79 180h205L452 304l66 4h114v-60H440v-63h192v-58H440V0H242z"/><glyph unicode="¦" horiz-adv-x="348" d="M263 706V321H85v385h178zm0-488v-386H85v386h178z"/><glyph unicode="§" horiz-adv-x="631" d="M424 85l-63 101q40 7 64 15t35 19 12 26q0 21-18 31t-47 16l-183 35q-42 8-74 30t-51 53-18 68q0 58 30 100t85 67 129 24q86 0 140-24t97-73l-99-91q-28 32-66 48t-81 17q-47 0-66-13t-19-31q0-12 7-21t29-16 62-16l84-15q68-13 111-34t63-50 20-72q0-57-23-96t-65-63-95-35zM312-110q-83 0-153 24T48-13l100 93q25-33 71-51t94-18q39 0 66 10t28 31q0 16-17 23t-62 18l-146 30q-53 12-89 32t-54 53-19 78q0 54 24 88t64 56 91 33l60-100q-37-9-59-17t-33-18-11-25q0-21 19-30t57-17l155-30q81-15 122-51t41-104q0-58-29-98t-82-62-127-21z"/><glyph unicode="¨" horiz-adv-x="500" d="M134 716q46 0 71-22t25-63q0-40-25-62t-71-23q-44 0-68 22t-25 63q0 41 24 63t69 22zm229 0q46 0 71-22t25-63q0-40-25-62t-71-23q-44 0-68 22t-25 63q0 41 24 63t69 22z"/><glyph unicode="©" horiz-adv-x="755" d="M377-10q-99 0-177 43T77 152 32 330q0 102 44 178t123 119 178 43q101 0 178-43t123-119 45-178q0-101-45-177T556 33 377-10zm0 90q76 0 132 31t88 88 32 131q0 75-31 131t-88 87-133 32q-75 0-131-31t-88-88-32-131q0-74 31-130t88-88 132-32zm6 56q-92 0-143 53t-51 141q0 88 51 140t143 53q71 0 116-31t63-85l-113-54q-10 20-24 27t-35 7q-27 0-43-14t-17-43q0-28 16-43t45-15q19 0 35 7t25 30l108-53q-25-64-66-92t-110-28z"/><glyph unicode="ª" horiz-adv-x="458" d="M142 299q-57 0-86 26t-30 66q0 44 28 66t90 35l107 22v-54l-48-12q-19-5-28-15t-10-24q0-14 9-21t22-7q11 0 20 4t16 14 6 25v100q0 19-10 30t-29 11q-18 0-31-10t-18-38L29 539q7 56 52 89t125 33q91 0 134-35t44-107V414q0-15 7-22t19-8q13 0 19 3l-11-75q-12-7-26-10t-35-3q-44 0-71 22t-27 66v20l18-2q-3-29-19-53t-46-39-70-14zM37 133v101h381V133H37z"/><glyph unicode="«" horiz-adv-x="618" d="M323 461L205 265 323 69H154L29 265l125 196h169zm266 0L471 265 589 69H420L295 265l125 196h169z"/><glyph unicode="¬" horiz-adv-x="604" d="M544 312V85H387v227h157zm0 85V259H60v138h484z"/><glyph unicode="­" horiz-adv-x="534" d="M457 349V191H78v158h379z"/><glyph unicode="®" horiz-adv-x="755" d="M377-10q-99 0-177 43T77 152 32 330q0 102 44 178t123 119 178 43q101 0 178-43t123-119 45-178q0-101-45-177T556 33 377-10zm33 164l-66 142 99 23 105-165H410zm-33-74q76 0 132 31t88 88 32 131q0 75-31 131t-88 87-133 32q-75 0-131-31t-88-88-32-131q0-74 31-130t88-88 132-32zm-149 74v362h183q37 0 65-15t46-43 17-62q0-58-39-89t-105-32h-54V154H228zm113 198h38q20 0 32 7t12 27q0 19-12 27t-32 8h-38v-69z"/><glyph unicode="¯" horiz-adv-x="500" d="M438 678V559H62v119h376z"/><glyph unicode="°" horiz-adv-x="508" d="M254 283q-66 0-113 23t-74 67-27 104q0 59 26 102t74 67 114 24q67 0 114-23t73-67 27-103q0-60-26-103t-74-67-114-24zm0 124q32 0 51 20t20 50q0 31-19 50t-52 19q-31 0-51-19t-20-50q0-30 20-50t51-20z"/><glyph unicode="±" horiz-adv-x="604" d="M373 656V196H232v460h141zm183-163V360H48v133h508zm0-364V1H48v128h508z"/><glyph unicode="²" horiz-adv-x="402" d="M25 333v88q25 12 46 23t42 24q41 25 66 47t37 41 12 36q0 16-8 25t-28 10q-22 0-32-18t-10-52L11 582q1 70 50 111t134 42q68 0 108-20t57-50 18-61q0-24-9-45t-27-41-44-36q-18-13-40-22t-46-18v-2q18 2 46 3t56 1h68V333H25z"/><glyph unicode="³" horiz-adv-x="386" d="M198 735q75 0 117-29t42-86q0-25-10-44t-29-30-46-13v-4q31 0 51-10t31-28 11-44q0-36-24-63t-65-42-95-15q-76 0-120 30T4 438l130 36q3-24 16-35t35-12q20 0 30 9t10 26q0 17-11 23t-34 7h-8q-4 0-9-1v70q4-1 8-1t7 0q20 0 30 9t11 26q0 17-9 25t-26 8q-18 0-31-11t-15-35L12 617q10 57 60 87t126 31z"/><glyph unicode="´" horiz-adv-x="519" d="M200 734h183L280 559H137l63 175z"/><glyph unicode="µ" horiz-adv-x="621" d="M49-210v710h202V214q0-40 13-56t41-17q20 0 34 10t23 32 8 56v261h202V0H392l-6 94q-19-51-54-77T249-9q-16 0-30 3T193 4l58 83v-297H49z"/><glyph unicode="¶" horiz-adv-x="781" d="M298-100v272q-75 1-135 27t-96 81-35 135q0 82 36 136t102 82 149 27h404v-760H561v608H461v-608H298zm-4 425v183q-34 0-57-11t-35-32-13-49q0-28 12-48t36-32 57-11z"/><glyph unicode="·" horiz-adv-x="291" d="M145 452q54 0 83-26t29-73q0-47-29-73t-83-26q-52 0-82 26t-30 73q0 47 30 73t82 26z"/><glyph unicode="¸" horiz-adv-x="500" d="M168 12l40 28q86-9 127-40t42-87q0-59-39-93t-109-35q-41 0-64 9t-41 20l30 90q12-8 25-12t33-5q25 0 40 14t16 38q0 22-21 39t-79 34z"/><glyph unicode="¹" horiz-adv-x="318" d="M160 730h120V333H139v231q0 16 2 35-24-17-54-29t-65-17v116q23 3 51 12t52 23 35 26z"/><glyph unicode="º" horiz-adv-x="445" d="M223 299q-88 0-139 47T32 480q0 86 51 133t140 48q87 0 138-47t52-134q0-86-51-133t-139-48zM36 133v101h373V133H36zm187 257q24 0 33 20t10 70q0 48-9 69t-34 21q-24 0-34-21t-11-69q0-49 10-69t35-21z"/><glyph unicode="»" horiz-adv-x="618" d="M295 69l118 196-118 196h169l125-196L464 69H295zM29 69l118 196L29 461h169l125-196L198 69H29z"/><glyph unicode="¼" horiz-adv-x="902" d="M160 921h120V524H139v231q0 16 2 35-24-17-54-29t-65-17v116q23 3 51 12t52 23 35 26zM139 0l476 661h134L273 0H139zm751 169V75h-57V-4H709v79H507v64l154 255h172V169h57zm-263 0h82v64q0 21 1 42t2 40h-3q-6-15-14-31t-16-31l-52-84z"/><glyph unicode="½" horiz-adv-x="971" d="M160 921h120V524H139v231q0 16 2 35-24-17-54-29t-65-17v116q23 3 51 12t52 23 35 26zM139 0l476 661h134L273 0H139zm456-4v88q25 12 46 23t42 24q41 25 66 47t37 41 12 36q0 16-8 25t-28 10q-22 0-32-18t-10-52l-139 25q1 70 50 111t134 42q68 0 108-20t57-50 18-61q0-24-9-45t-27-41-44-36q-18-13-40-22t-46-18v-2q18 2 46 3t56 1h68V-4H595z"/><glyph unicode="¾" horiz-adv-x="970" d="M198 926q75 0 117-29t42-86q0-25-10-44t-29-30-46-13v-4q31 0 51-10t31-28 11-44q0-36-24-63t-65-42-95-15q-76 0-120 30T4 629l130 36q3-24 16-35t35-12q20 0 30 9t10 26q0 17-11 23t-34 7h-8q-4 0-9-1v70q4-1 8-1t7 0q20 0 30 9t11 26q0 17-9 25t-26 8q-18 0-31-11t-15-35L12 808q10 57 60 87t126 31zm9-926l476 661h134L341 0H207zm751 169V75h-57V-4H777v79H575v64l154 255h172V169h57zm-263 0h82v64q0 21 1 42t2 40h-3q-6-15-14-31t-16-31l-52-84z"/><glyph unicode="¿" horiz-adv-x="630" d="M310-169q-77 0-138 20T75-86 39 21q0 62 26 101t69 59 96 25l14 79h173l-1-153q-59-4-93-15t-50-29-15-40q0-28 16-42t49-15q35 0 54 22t26 66l197-62q-13-52-46-94t-92-67-152-25zm17 497q-51 0-79 24t-29 66q0 43 28 67t80 24q50 0 78-24t28-67q0-42-28-66t-78-24z"/><glyph unicode="À" horiz-adv-x="684" d="M-3 0l222 660h245L687 0H477L369 400l-28 108h-2l-27-107L201 0H-3zm159 137v132h373V137H156zm207 744l59-166H278l-91 166h176z"/><glyph unicode="Á" horiz-adv-x="684" d="M-3 0l222 660h245L687 0H477L369 400l-28 108h-2l-27-107L201 0H-3zm159 137v132h373V137H156zm162 744h176l-91-166H259l59 166z"/><glyph unicode="Â" horiz-adv-x="684" d="M-3 0l222 660h245L687 0H477L369 400l-28 108h-2l-27-107L201 0H-3zm159 137v132h373V137H156zm379 578H401l-60 87-60-87H147l97 166h194l97-166z"/><glyph unicode="Ã" horiz-adv-x="684" d="M-3 0l222 660h245L687 0H477L369 400l-28 108h-2l-27-107L201 0H-3zm159 137v132h373V137H156zm389 742q-1-57-19-94t-46-56-62-19q-28 0-48 8t-36 19-29 19-27 8q-15 0-23-12t-11-40H136q3 85 41 126t96 42q27 0 46-8t32-18 26-19 27-8q16 0 23 12t11 40h107z"/><glyph unicode="Ä" horiz-adv-x="684" d="M-3 0l222 660h245L687 0H477L369 400l-28 108h-2l-27-107L201 0H-3zm159 137v132h373V137H156zm69 739q46 0 71-22t25-63q0-40-25-62t-71-23q-44 0-68 22t-25 63q0 41 24 63t69 22zm229 0q46 0 71-22t25-63q0-40-25-62t-71-23q-44 0-68 22t-25 63q0 41 24 63t69 22z"/><glyph unicode="Å" horiz-adv-x="684" d="M-3 0l222 660h245L687 0H477L369 400l-28 108h-2l-27-107L201 0H-3zm159 137v132h373V137H156zm185 704q66 0 105-35t40-94q0-58-39-93t-106-35q-65 0-104 35t-40 93q0 59 39 94t105 35zm1-82q-22 0-35-12t-13-34q0-22 13-34t35-13q21 0 34 12t13 35q0 21-13 33t-34 13z"/><glyph unicode="Æ" horiz-adv-x="913" d="M599 145h292V0H410v190H256L196 0H-7l246 660h639V515H599V397h214V262H599V145zM292 315h118v207h-49l-69-207z"/><glyph unicode="Ç" horiz-adv-x="679" d="M664 196q-18-73-60-119T501 11 367-10q-102 0-176 40T76 147 36 330q0 107 40 183t114 116 176 41q72 0 132-20t103-62 57-109l-177-71q-11 64-38 85t-71 21q-40 0-68-20t-43-61-15-103q0-61 13-102t42-61 75-21q41 0 69 24t37 75l182-49zM271 12l40 28q86-9 127-40t42-87q0-59-39-93t-109-35q-41 0-64 9t-41 20l30 90q12-8 25-12t33-5q25 0 40 14t16 38q0 22-21 39t-79 34z"/><glyph unicode="È" horiz-adv-x="628" d="M61 0v660h532V507H265V400h262V258H265V153h341V0H61zm289 881l59-166H265l-91 166h176z"/><glyph unicode="É" horiz-adv-x="628" d="M61 0v660h532V507H265V400h262V258H265V153h341V0H61zm234 881h176l-91-166H236l59 166z"/><glyph unicode="Ê" horiz-adv-x="628" d="M61 0v660h532V507H265V400h262V258H265V153h341V0H61zm460 715H387l-60 87-60-87H133l97 166h194l97-166z"/><glyph unicode="Ë" horiz-adv-x="628" d="M61 0v660h532V507H265V400h262V258H265V153h341V0H61zm150 876q46 0 71-22t25-63q0-40-25-62t-71-23q-44 0-68 22t-25 63q0 41 24 63t69 22zm229 0q46 0 71-22t25-63q0-40-25-62t-71-23q-44 0-68 22t-25 63q0 41 24 63t69 22z"/><glyph unicode="Ì" horiz-adv-x="326" d="M265 660V0H61v660h204zm-81 221l59-166H99L8 881h176z"/><glyph unicode="Í" horiz-adv-x="326" d="M265 660V0H61v660h204zM142 881h176l-91-166H83l59 166z"/><glyph unicode="Î" horiz-adv-x="326" d="M265 660V0H61v660h204zm92 55H223l-60 87-60-87H-31l97 166h194l97-166z"/><glyph unicode="Ï" horiz-adv-x="326" d="M54 876q44 0 68-22t25-63q0-40-24-62t-69-23q-42 0-66 22t-24 63q0 41 24 63t66 22zm215 0q44 0 69-22t25-63q0-40-25-62t-69-23q-42 0-66 22t-24 63q0 41 24 63t66 22zm-4-216V0H61v660h204z"/><glyph unicode="Ð" horiz-adv-x="743" d="M8 261v136h390V261H8zm382 399q155 0 235-86t81-244q0-157-80-243T390 0H87v660h303zm-25-511q73 0 102 44t30 137q0 92-29 136t-103 45h-74V149h74z"/><glyph unicode="Ñ" horiz-adv-x="744" d="M683 660V0H459L279 327l-42 89h-2l4-130V0H61v660h223l180-327 43-89h1l-4 130v286h179zM577 879q-1-57-19-94t-46-56-62-19q-28 0-48 8t-36 19-29 19-27 8q-15 0-23-12t-11-40H168q3 85 41 126t96 42q27 0 46-8t32-18 26-19 27-8q16 0 23 12t11 40h107z"/><glyph unicode="Ò" horiz-adv-x="733" d="M367 670q103 0 176-40t113-117 40-183q0-107-39-183T544 31 367-10q-102 0-176 40T76 147 36 330q0 107 40 183t114 116 177 41zm0-156q-41 0-67-20t-40-61-14-103q0-62 13-102t40-61 68-21q40 0 67 20t40 61 13 103q0 63-13 103t-40 60-67 21zm21 367l59-166H303l-91 166h176z"/><glyph unicode="Ó" horiz-adv-x="733" d="M367 670q103 0 176-40t113-117 40-183q0-107-39-183T544 31 367-10q-102 0-176 40T76 147 36 330q0 107 40 183t114 116 177 41zm0-156q-41 0-67-20t-40-61-14-103q0-62 13-102t40-61 68-21q40 0 67 20t40 61 13 103q0 63-13 103t-40 60-67 21zm-23 367h176l-91-166H285l59 166z"/><glyph unicode="Ô" horiz-adv-x="733" d="M367 670q103 0 176-40t113-117 40-183q0-107-39-183T544 31 367-10q-102 0-176 40T76 147 36 330q0 107 40 183t114 116 177 41zm0-156q-41 0-67-20t-40-61-14-103q0-62 13-102t40-61 68-21q40 0 67 20t40 61 13 103q0 63-13 103t-40 60-67 21zm194 201H427l-60 87-60-87H173l97 166h194l97-166z"/><glyph unicode="Õ" horiz-adv-x="733" d="M367 670q103 0 176-40t113-117 40-183q0-107-39-183T544 31 367-10q-102 0-176 40T76 147 36 330q0 107 40 183t114 116 177 41zm0-156q-41 0-67-20t-40-61-14-103q0-62 13-102t40-61 68-21q40 0 67 20t40 61 13 103q0 63-13 103t-40 60-67 21zm204 365q-1-57-19-94t-46-56-62-19q-28 0-48 8t-36 19-29 19-27 8q-15 0-23-12t-11-40H162q3 85 41 126t96 42q27 0 46-8t32-18 26-19 27-8q16 0 23 12t11 40h107z"/><glyph unicode="Ö" horiz-adv-x="733" d="M367 670q103 0 176-40t113-117 40-183q0-107-39-183T544 31 367-10q-102 0-176 40T76 147 36 330q0 107 40 183t114 116 177 41zm0-156q-41 0-67-20t-40-61-14-103q0-62 13-102t40-61 68-21q40 0 67 20t40 61 13 103q0 63-13 103t-40 60-67 21zM251 876q46 0 71-22t25-63q0-40-25-62t-71-23q-44 0-68 22t-25 63q0 41 24 63t69 22zm229 0q46 0 71-22t25-63q0-40-25-62t-71-23q-44 0-68 22t-25 63q0 41 24 63t69 22z"/><glyph unicode="×" horiz-adv-x="604" d="M454 72l105 106-409 409L44 481 454 72zm-304 0l409 409-105 106L44 178 150 72z"/><glyph unicode="Ø" horiz-adv-x="733" d="M261 131l-50 42 244 331 53-39-247-334zM53-24l134 172 55-42L135-24H53zm489 528l-55 42 110 135h83L542 504zM367 670q103 0 176-40t113-117 40-183q0-107-39-183T544 31 367-10q-102 0-176 40T76 147 36 330q0 107 40 183t114 116 177 41zm0-156q-41 0-67-20t-40-61-14-103q0-62 13-102t40-61 68-21q40 0 67 20t40 61 13 103q0 63-13 103t-40 60-67 21z"/><glyph unicode="Ù" horiz-adv-x="711" d="M663 660V277q0-144-77-215T356-10q-154 0-231 71T48 277v383h205V266q0-60 26-90t77-30q51 0 77 30t26 90v394h204zM379 876l59-166H294l-91 166h176z"/><glyph unicode="Ú" horiz-adv-x="711" d="M663 660V277q0-144-77-215T356-10q-154 0-231 71T48 277v383h205V266q0-60 26-90t77-30q51 0 77 30t26 90v394h204zM333 876h176l-91-166H274l59 166z"/><glyph unicode="Û" horiz-adv-x="711" d="M663 660V277q0-144-77-215T356-10q-154 0-231 71T48 277v383h205V266q0-60 26-90t77-30q51 0 77 30t26 90v394h204zm-113 50H416l-60 87-60-87H162l97 166h194l97-166z"/><glyph unicode="Ü" horiz-adv-x="711" d="M663 660V277q0-144-77-215T356-10q-154 0-231 71T48 277v383h205V266q0-60 26-90t77-30q51 0 77 30t26 90v394h204zM240 871q46 0 71-22t25-63q0-40-25-62t-71-23q-44 0-68 22t-25 63q0 41 24 63t69 22zm229 0q46 0 71-22t25-63q0-40-25-62t-71-23q-44 0-68 22t-25 63q0 41 24 63t69 22z"/><glyph unicode="Ý" horiz-adv-x="687" d="M677 660L446 234V0H241v234L9 660h207l80-165 49-115 48 115 81 165h203zM320 877h176l-91-166H261l59 166z"/><glyph unicode="Þ" horiz-adv-x="691" d="M391 566q127 0 197-58t70-171q0-113-70-171t-197-58H163v148h199q90 0 90 83 0 40-23 59t-67 19H163v149h228zm-126 94V0H61v660h204z"/><glyph unicode="ß" horiz-adv-x="657" d="M456 353q54 0 93-21t61-60 22-92q0-50-22-93t-70-70-123-27q-44 0-78 8t-57 24l29 127q12-8 26-13t36-6q31 0 50 21t19 57q0 35-22 54t-64 19h-53l22 137h23q38 0 57 22t19 57q0 36-21 55t-58 19q-50 0-72-31t-22-101V0H49v448q0 84 30 142t96 90 176 31q87 0 146-25t91-68 31-101q0-42-19-79t-56-59-88-24v-2z"/><glyph unicode="à" horiz-adv-x="584" d="M324 315q0 28-14 44t-43 17q-26 0-44-14t-24-53L28 340q10 78 73 124t180 46q80 0 134-22t82-66 27-103V151q0-40 37-40 15 0 23 4L574 6q-33-16-82-16-43 0-76 13t-52 40-19 68v8l20 3q0-40-24-70T277 6t-88-16q-52 0-89 16T44 52t-20 73q0 55 33 90t102 48l181 38-1-85-74-17q-25-5-36-16t-12-32q0-19 13-29t32-11q13 0 24 4t19 12 14 20 5 29v139zm-35 419l63-175H208L106 734h183z"/><glyph unicode="á" horiz-adv-x="584" d="M324 315q0 28-14 44t-43 17q-26 0-44-14t-24-53L28 340q10 78 73 124t180 46q80 0 134-22t82-66 27-103V151q0-40 37-40 15 0 23 4L574 6q-33-16-82-16-43 0-76 13t-52 40-19 68v8l20 3q0-40-24-70T277 6t-88-16q-52 0-89 16T44 52t-20 73q0 55 33 90t102 48l181 38-1-85-74-17q-25-5-36-16t-12-32q0-19 13-29t32-11q13 0 24 4t19 12 14 20 5 29v139zm-70 419h183L334 559H191l63 175z"/><glyph unicode="â" horiz-adv-x="584" d="M324 315q0 28-14 44t-43 17q-26 0-44-14t-24-53L28 340q10 78 73 124t180 46q80 0 134-22t82-66 27-103V151q0-40 37-40 15 0 23 4L574 6q-33-16-82-16-43 0-76 13t-52 40-19 68v8l20 3q0-40-24-70T277 6t-88-16q-52 0-89 16T44 52t-20 73q0 55 33 90t102 48l181 38-1-85-74-17q-25-5-36-16t-12-32q0-19 13-29t32-11q13 0 24 4t19 12 14 20 5 29v139zm156 237H339l-62 80-62-80H74l108 176h190l108-176z"/><glyph unicode="ã" horiz-adv-x="584" d="M324 315q0 28-14 44t-43 17q-26 0-44-14t-24-53L28 340q10 78 73 124t180 46q80 0 134-22t82-66 27-103V151q0-40 37-40 15 0 23 4L574 6q-33-16-82-16-43 0-76 13t-52 40-19 68v8l20 3q0-40-24-70T277 6t-88-16q-52 0-89 16T44 52t-20 73q0 55 33 90t102 48l181 38-1-85-74-17q-25-5-36-16t-12-32q0-19 13-29t32-11q13 0 24 4t19 12 14 20 5 29v139zm157 404q-1-57-19-94t-46-56-62-19q-28 0-48 8t-36 19-29 19-27 8q-15 0-23-12t-11-40H72q3 85 41 126t96 42q27 0 46-8t32-18 26-19 27-8q16 0 23 12t11 40h107z"/><glyph unicode="ä" horiz-adv-x="584" d="M324 315q0 28-14 44t-43 17q-26 0-44-14t-24-53L28 340q10 78 73 124t180 46q80 0 134-22t82-66 27-103V151q0-40 37-40 15 0 23 4L574 6q-33-16-82-16-43 0-76 13t-52 40-19 68v8l20 3q0-40-24-70T277 6t-88-16q-52 0-89 16T44 52t-20 73q0 55 33 90t102 48l181 38-1-85-74-17q-25-5-36-16t-12-32q0-19 13-29t32-11q13 0 24 4t19 12 14 20 5 29v139zM161 716q46 0 71-22t25-63q0-40-25-62t-71-23q-44 0-68 22t-25 63q0 41 24 63t69 22zm229 0q46 0 71-22t25-63q0-40-25-62t-71-23q-44 0-68 22t-25 63q0 41 24 63t69 22z"/><glyph unicode="å" horiz-adv-x="584" d="M324 315q0 28-14 44t-43 17q-26 0-44-14t-24-53L28 340q10 78 73 124t180 46q80 0 134-22t82-66 27-103V151q0-40 37-40 15 0 23 4L574 6q-33-16-82-16-43 0-76 13t-52 40-19 68v8l20 3q0-40-24-70T277 6t-88-16q-52 0-89 16T44 52t-20 73q0 55 33 90t102 48l181 38-1-85-74-17q-25-5-36-16t-12-32q0-19 13-29t32-11q13 0 24 4t19 12 14 20 5 29v139zm-48 484q66 0 105-35t40-94q0-58-39-93t-106-35q-65 0-104 35t-40 93q0 59 39 94t105 35zm1-82q-22 0-35-12t-13-34q0-22 13-34t35-13q21 0 34 12t13 35q0 21-13 33t-34 13z"/><glyph unicode="æ" horiz-adv-x="874" d="M202-10q-58 0-98 16T44 53t-21 75q0 54 36 88t101 48l164 33v15q0 31-15 47t-44 17q-24 0-42-14t-24-53L28 340q6 48 36 86t81 61 121 23q81 0 134-27t72-82l-65-5q20 37 50 62t68 38 83 14q79 0 132-30t81-85 28-126q0-16-1-33t-4-29H518q3-43 30-61t63-19q30 0 44 13t22 37l163-47q-13-47-46-78T714 6 613-10q-91 0-149 42t-77 122l40-10q-7-32-23-59t-44-49-66-34-92-12zm60 121q12 0 23 3t20 13 14 21 5 30v36l-59-14q-25-6-36-16t-12-34q0-17 12-28t33-11zm256 183h141q-2 26-9 43t-22 27-35 9q-32 0-50-18t-25-61z"/><glyph unicode="ç" horiz-adv-x="569" d="M298 510q84 0 138-23t83-61 32-79l-187-57q-3 41-16 61t-43 20q-25 0-42-12t-25-39-8-72q0-46 9-72t27-36 40-11q20 0 32 8t21 25 10 40l181-57q-4-43-34-78t-84-56-125-21q-86 0-149 30t-97 89-34 141q0 83 34 141t95 88 142 31zM214 12l40 28q86-9 127-40t42-87q0-59-39-93t-109-35q-41 0-64 9t-41 20l30 90q12-8 25-12t33-5q25 0 40 14t16 38q0 22-21 39t-79 34z"/><glyph unicode="è" horiz-adv-x="579" d="M305-10q-86 0-148 30t-96 89-34 141q0 83 34 141t95 88 141 31q82 0 139-30t88-85 31-126q0-17-1-34t-4-29H157v88h305l-96-37q0 57-15 86t-54 30q-26 0-43-12t-26-40-9-74q0-46 10-72t30-37 48-10q32 0 50 13t26 36l162-48q-12-46-48-77T410 6 305-10zm2 744l63-175H226L124 734h183z"/><glyph unicode="é" horiz-adv-x="579" d="M305-10q-86 0-148 30t-96 89-34 141q0 83 34 141t95 88 141 31q82 0 139-30t88-85 31-126q0-17-1-34t-4-29H157v88h305l-96-37q0 57-15 86t-54 30q-26 0-43-12t-26-40-9-74q0-46 10-72t30-37 48-10q32 0 50 13t26 36l162-48q-12-46-48-77T410 6 305-10zm-33 744h183L352 559H209l63 175z"/><glyph unicode="ê" horiz-adv-x="579" d="M305-10q-86 0-148 30t-96 89-34 141q0 83 34 141t95 88 141 31q82 0 139-30t88-85 31-126q0-17-1-34t-4-29H157v88h305l-96-37q0 57-15 86t-54 30q-26 0-43-12t-26-40-9-74q0-46 10-72t30-37 48-10q32 0 50 13t26 36l162-48q-12-46-48-77T410 6 305-10zm193 562H357l-62 80-62-80H92l108 176h190l108-176z"/><glyph unicode="ë" horiz-adv-x="579" d="M305-10q-86 0-148 30t-96 89-34 141q0 83 34 141t95 88 141 31q82 0 139-30t88-85 31-126q0-17-1-34t-4-29H157v88h305l-96-37q0 57-15 86t-54 30q-26 0-43-12t-26-40-9-74q0-46 10-72t30-37 48-10q32 0 50 13t26 36l162-48q-12-46-48-77T410 6 305-10zM179 716q46 0 71-22t25-63q0-40-25-62t-71-23q-44 0-68 22t-25 63q0 41 24 63t69 22zm229 0q46 0 71-22t25-63q0-40-25-62t-71-23q-44 0-68 22t-25 63q0 41 24 63t69 22z"/><glyph unicode="ì" horiz-adv-x="300" d="M251 500V0H49v500h202zm-89 234l63-175H81L-21 734h183z"/><glyph unicode="í" horiz-adv-x="300" d="M251 500V0H49v500h202zM127 734h183L207 559H64l63 175z"/><glyph unicode="î" horiz-adv-x="300" d="M251 500V0H49v500h202zm102 52H212l-62 80-62-80H-53L55 728h190l108-176z"/><glyph unicode="ï" horiz-adv-x="300" d="M252 544q-44 0-66 22t-23 65q0 43 22 65t67 22q44 0 66-22t23-65q0-43-22-65t-67-22zm-204 0q-44 0-66 22t-23 65q0 43 22 65t67 22q44 0 66-22t23-65q0-43-22-65t-67-22zm203-44V0H49v500h202z"/><glyph unicode="ð" horiz-adv-x="598" d="M298-10q-83 0-142 30t-91 87-31 138q0 81 30 137t85 87 124 30q72 0 109-34t48-91l-8-4q-6 62-25 109t-50 86-77 76-105 78h171q40-20 80-55t75-86 55-118 21-152q0-105-35-175T437 26 298-10zm7 139q26 0 42 12t23 38 8 66q0 46-7 74t-23 40-42 13q-24 0-39-12t-22-41-8-74q0-62 16-89t52-27zM187 541l-11 61 168 30 24-56-181-35zm229 44l-19 55 164 31 13-58-158-28z"/><glyph unicode="ñ" horiz-adv-x="620" d="M49 0v500h182l9-193-21 22q8 58 33 98t64 62 92 21q51 0 87-19t57-58 20-95V0H370v286q0 42-13 57t-39 16q-19 0-34-9t-24-31-9-55V0H49zm466 719q-1-57-19-94t-46-56-62-19q-28 0-48 8t-36 19-29 19-27 8q-15 0-23-12t-11-40H106q3 85 41 126t96 42q27 0 46-8t32-18 26-19 27-8q16 0 23 12t11 40h107z"/><glyph unicode="ò" horiz-adv-x="598" d="M299 510q82 0 143-30t95-89 34-141q0-82-34-140t-95-89-143-31q-80 0-141 30t-96 89-35 141q0 83 34 141t96 88 142 31zm0-139q-22 0-37-11t-24-38-8-72q0-45 8-71t23-38 38-12q23 0 38 11t23 38 8 72q0 45-8 72t-23 38-38 11zm12 363l63-175H230L128 734h183z"/><glyph unicode="ó" horiz-adv-x="598" d="M299 510q82 0 143-30t95-89 34-141q0-82-34-140t-95-89-143-31q-80 0-141 30t-96 89-35 141q0 83 34 141t96 88 142 31zm0-139q-22 0-37-11t-24-38-8-72q0-45 8-71t23-38 38-12q23 0 38 11t23 38 8 72q0 45-8 72t-23 38-38 11zm-23 363h183L356 559H213l63 175z"/><glyph unicode="ô" horiz-adv-x="598" d="M299 510q82 0 143-30t95-89 34-141q0-82-34-140t-95-89-143-31q-80 0-141 30t-96 89-35 141q0 83 34 141t96 88 142 31zm0-139q-22 0-37-11t-24-38-8-72q0-45 8-71t23-38 38-12q23 0 38 11t23 38 8 72q0 45-8 72t-23 38-38 11zm203 181H361l-62 80-62-80H96l108 176h190l108-176z"/><glyph unicode="õ" horiz-adv-x="598" d="M299 510q82 0 143-30t95-89 34-141q0-82-34-140t-95-89-143-31q-80 0-141 30t-96 89-35 141q0 83 34 141t96 88 142 31zm0-139q-22 0-37-11t-24-38-8-72q0-45 8-71t23-38 38-12q23 0 38 11t23 38 8 72q0 45-8 72t-23 38-38 11zm204 348q-1-57-19-94t-46-56-62-19q-28 0-48 8t-36 19-29 19-27 8q-15 0-23-12t-11-40H94q3 85 41 126t96 42q27 0 46-8t32-18 26-19 27-8q16 0 23 12t11 40h107z"/><glyph unicode="ö" horiz-adv-x="598" d="M299 510q82 0 143-30t95-89 34-141q0-82-34-140t-95-89-143-31q-80 0-141 30t-96 89-35 141q0 83 34 141t96 88 142 31zm0-139q-22 0-37-11t-24-38-8-72q0-45 8-71t23-38 38-12q23 0 38 11t23 38 8 72q0 45-8 72t-23 38-38 11zM183 716q46 0 71-22t25-63q0-40-25-62t-71-23q-44 0-68 22t-25 63q0 41 24 63t69 22zm229 0q46 0 71-22t25-63q0-40-25-62t-71-23q-44 0-68 22t-25 63q0 41 24 63t69 22z"/><glyph unicode="÷" horiz-adv-x="630" d="M570 397V259H60v138h510zM315 193q42 0 65-23t24-65q0-41-23-64t-66-23q-43 0-66 23t-24 64q0 42 23 65t67 23zm0 444q42 0 65-23t24-65q0-41-23-64t-66-23q-43 0-66 23t-24 64q0 41 23 64t67 24z"/><glyph unicode="ø" horiz-adv-x="598" d="M299 510q82 0 143-30t95-89 34-141q0-82-34-140t-95-89-143-31q-80 0-141 30t-96 89-35 141q0 83 34 141t96 88 142 31zm0-139q-22 0-37-11t-24-38-8-72q0-45 8-71t23-38 38-12q23 0 38 11t23 38 8 72q0 45-8 72t-23 38-38 11zm-2-394l449 545h67L364-23h-67z"/><glyph unicode="ù" horiz-adv-x="619" d="M214-10q-51 0-88 17T68 63 47 164v336h202V211q0-38 14-54t41-16q14 0 26 5t20 17 13 29 5 42v266h202V0H389l-5 100q-23-55-66-82T214-10zm102 742l63-175H235L133 732h183z"/><glyph unicode="ú" horiz-adv-x="619" d="M214-10q-51 0-88 17T68 63 47 164v336h202V211q0-38 14-54t41-16q14 0 26 5t20 17 13 29 5 42v266h202V0H389l-5 100q-23-55-66-82T214-10zm67 742h183L361 557H218l63 175z"/><glyph unicode="û" horiz-adv-x="619" d="M214-10q-51 0-88 17T68 63 47 164v336h202V211q0-38 14-54t41-16q14 0 26 5t20 17 13 29 5 42v266h202V0H389l-5 100q-23-55-66-82T214-10zm293 560H366l-62 80-62-80H101l108 176h190l108-176z"/><glyph unicode="ü" horiz-adv-x="619" d="M214-10q-51 0-88 17T68 63 47 164v336h202V211q0-38 14-54t41-16q14 0 26 5t20 17 13 29 5 42v266h202V0H389l-5 100q-23-55-66-82T214-10zm-26 724q46 0 71-22t25-63q0-40-25-62t-71-23q-44 0-68 22t-25 63q0 41 24 63t69 22zm229 0q46 0 71-22t25-63q0-40-25-62t-71-23q-44 0-68 22t-25 63q0 41 24 63t69 22z"/><glyph unicode="ý" horiz-adv-x="579" d="M585 500L422 30q-30-90-67-143t-89-78-124-24q-45 0-82 9t-64 24L34-51q17-10 36-15t53-5q31 0 48 8t25 29l7 19-60 142L-3 500h221l60-271 21-111 25 114 62 268h199zM288 732h183L368 557H225l63 175z"/><glyph unicode="þ" horiz-adv-x="627" d="M49-210v916h202V355l-18-1q12 67 53 111t119 45q57 0 100-31t66-89 24-142q0-81-24-139t-68-88-106-31q-71 0-111 44t-53 112l18 27v-383H49zm271 345q34 0 53 25t19 90q0 64-19 90t-52 26q-21 0-37-13t-24-38-9-65q0-37 7-63t24-39 38-13z"/><glyph unicode="ÿ" horiz-adv-x="579" d="M585 500L422 30q-30-90-67-143t-89-78-124-24q-45 0-82 9t-64 24L34-51q17-10 36-15t53-5q31 0 48 8t25 29l7 19-60 142L-3 500h221l60-271 21-111 25 114 62 268h199zM195 714q46 0 71-22t25-63q0-40-25-62t-71-23q-44 0-68 22t-25 63q0 41 24 63t69 22zm229 0q46 0 71-22t25-63q0-40-25-62t-71-23q-44 0-68 22t-25 63q0 41 24 63t69 22z"/><glyph unicode="–" horiz-adv-x="701" d="M625 348V191H76v157h549z"/><glyph unicode="—" horiz-adv-x="1003" d="M926 348V191H76v157h850z"/><glyph unicode="‘" horiz-adv-x="308" d="M157 336q-42 0-68 18t-39 49-13 64q0 50 22 95t56 78 72 48l78-55q-27-12-52-29t-44-37-30-41l5-4q6 4 14 6t23 3q20 0 40-10t34-29 14-50q0-37-16-60t-42-34-54-12z"/><glyph unicode="’" horiz-adv-x="308" d="M157 686q42 0 68-18t39-49 13-64q0-50-22-95t-56-78-72-48l-78 55q27 12 52 29t44 37 30 41l-5 4q-6-4-14-6t-23-3q-20 0-40 10t-34 29-14 50q0 37 16 60t42 34 54 12z"/><glyph unicode="‚" horiz-adv-x="296" d="M145 190q42 0 68-18t39-49 13-64q0-50-22-95t-56-78-72-48l-78 55q27 12 52 29t44 37 30 41l-5 4q-6-4-14-6t-23-3Q101-5 81 5T47 34 33 84q0 37 16 60t42 34 54 12z"/><glyph unicode="“" horiz-adv-x="573" d="M157 336q-42 0-68 18t-39 49-13 64q0 50 22 95t56 78 72 48l78-55q-27-12-52-29t-44-37-30-41l5-4q6 4 14 6t23 3q20 0 40-10t34-29 14-50q0-37-16-60t-42-34-54-12zm265 0q-42 0-68 18t-39 49-13 64q0 50 22 95t56 78 72 48l78-55q-27-12-52-29t-44-37-30-41l5-4q6 4 14 6t23 3q20 0 40-10t34-29 14-50q0-37-16-60t-42-34-54-12z"/><glyph unicode="”" horiz-adv-x="573" d="M157 686q42 0 68-18t39-49 13-64q0-50-22-95t-56-78-72-48l-78 55q27 12 52 29t44 37 30 41l-5 4q-6-4-14-6t-23-3q-20 0-40 10t-34 29-14 50q0 37 16 60t42 34 54 12zm265 0q42 0 68-18t39-49 13-64q0-50-22-95t-56-78-72-48l-78 55q27 12 52 29t44 37 30 41l-5 4q-6-4-14-6t-23-3q-20 0-40 10t-34 29-14 50q0 37 16 60t42 34 54 12z"/><glyph unicode="„" horiz-adv-x="555" d="M145 190q42 0 68-18t39-49 13-64q0-50-22-95t-56-78-72-48l-78 55q27 12 52 29t44 37 30 41l-5 4q-6-4-14-6t-23-3Q101-5 81 5T47 34 33 84q0 37 16 60t42 34 54 12zm258 0q42 0 68-18t39-49 13-64q0-50-22-95t-56-78-72-48l-78 55q27 12 52 29t44 37 30 41l-5 4q-6-4-14-6t-23-3q-20 0-40 10t-34 29-14 50q0 37 16 60t42 34 54 12z"/><glyph unicode="•" horiz-adv-x="430" d="M215 173q-77 0-120 42T51 331q0 75 43 117t121 42q78 0 121-42t43-117q0-74-43-116t-121-42z"/><glyph unicode="‹" horiz-adv-x="353" d="M323 461L205 265 323 69H154L29 265l125 196h169z"/><glyph unicode="›" horiz-adv-x="353" d="M30 69l118 196L30 461h169l125-196L199 69H30z"/></font>
</defs>
</svg>
